<svg xmlns="http://www.w3.org/2000/svg" viewBox="0 0 1600 900" fill="none">
  <defs>
    <linearGradient id="sky" x1="800" y1="60" x2="800" y2="620" gradientUnits="userSpaceOnUse">
      <stop offset="0" stop-color="#6f698f"/>
      <stop offset=".18" stop-color="#8f6f8f"/>
      <stop offset=".42" stop-color="#c27a80"/>
      <stop offset=".7" stop-color="#e79a7d"/>
      <stop offset="1" stop-color="#e5b18b"/>
    </linearGradient>
    <linearGradient id="street" x1="800" y1="470" x2="800" y2="900" gradientUnits="userSpaceOnUse">
      <stop offset="0" stop-color="#8a6057"/>
      <stop offset=".32" stop-color="#543b3d"/>
      <stop offset="1" stop-color="#1a171f"/>
    </linearGradient>
    <filter id="glow" x="-20%" y="-20%" width="140%" height="140%">
      <feGaussianBlur stdDeviation="18"/>
    </filter>
    <filter id="soft" x="-20%" y="-20%" width="140%" height="140%">
      <feGaussianBlur stdDeviation="28"/>
    </filter>
  </defs>

  <rect width="1600" height="900" fill="url(#sky)"/>
  <rect y="470" width="1600" height="430" fill="url(#street)"/>

  <g opacity=".34" filter="url(#soft)">
    <ellipse cx="798" cy="372" rx="420" ry="96" fill="#ffd5b0"/>
    <ellipse cx="458" cy="332" rx="120" ry="94" fill="#ffcf9c"/>
    <ellipse cx="1168" cy="334" rx="134" ry="94" fill="#ffcb94"/>
  </g>

  <g opacity=".18">
    <rect x="94" y="440" width="238" height="108" rx="18" fill="#fff0d4"/>
    <rect x="366" y="406" width="266" height="126" rx="18" fill="#fff0d4"/>
    <rect x="664" y="376" width="284" height="140" rx="22" fill="#fff0d4"/>
    <rect x="982" y="406" width="250" height="124" rx="20" fill="#fff0d4"/>
    <rect x="1268" y="438" width="188" height="106" rx="18" fill="#fff0d4"/>
  </g>

  <g fill="#312f44">
    <path d="M40 294h198v310H40z"/>
    <path d="M186 244h184v360H186z"/>
    <path d="M324 196h182v408H324z"/>
    <path d="M454 172h138v432H454z"/>
    <path d="M608 144h124v460H608z"/>
    <path d="M724 130h150v474H724z"/>
    <path d="M864 156h184v448H864z"/>
    <path d="M1016 200h150v404h-150z"/>
    <path d="M1148 226h166v378h-166z"/>
    <path d="M1294 264h132v340h-132z"/>
    <path d="M1410 316h120v288h-120z"/>
  </g>

  <g fill="#ffe6c7" fill-opacity=".18">
    <rect x="102" y="342" width="72" height="18" rx="9"/>
    <rect x="226" y="286" width="98" height="20" rx="10"/>
    <rect x="366" y="232" width="94" height="20" rx="10"/>
    <rect x="498" y="208" width="66" height="18" rx="9"/>
    <rect x="640" y="186" width="54" height="16" rx="8"/>
    <rect x="756" y="170" width="86" height="18" rx="9"/>
    <rect x="910" y="196" width="94" height="18" rx="9"/>
    <rect x="1060" y="242" width="78" height="18" rx="9"/>
    <rect x="1200" y="274" width="78" height="18" rx="9"/>
    <rect x="1320" y="314" width="62" height="18" rx="9"/>
  </g>

  <g fill="#fff2d8" fill-opacity=".16">
    <rect x="84" y="384" width="22" height="164" rx="11"/>
    <rect x="120" y="384" width="22" height="164" rx="11"/>
    <rect x="156" y="384" width="22" height="164" rx="11"/>
    <rect x="258" y="324" width="22" height="208" rx="11"/>
    <rect x="296" y="324" width="22" height="208" rx="11"/>
    <rect x="334" y="324" width="22" height="208" rx="11"/>
    <rect x="386" y="272" width="22" height="244" rx="11"/>
    <rect x="424" y="272" width="22" height="244" rx="11"/>
    <rect x="680" y="196" width="26" height="282" rx="13"/>
    <rect x="786" y="176" width="26" height="300" rx="13"/>
    <rect x="826" y="176" width="26" height="300" rx="13"/>
    <rect x="922" y="212" width="26" height="266" rx="13"/>
    <rect x="962" y="212" width="26" height="266" rx="13"/>
    <rect x="1100" y="256" width="22" height="222" rx="11"/>
    <rect x="1246" y="302" width="22" height="186" rx="11"/>
  </g>

  <path d="M516 900l140-430h286l146 430H516z" fill="#2f2127"/>
  <path d="M592 900l104-382h210l110 382H592z" fill="#3d2930"/>
  <path d="M724 900l52-296h52l54 296h-158z" fill="#6f5258"/>
  <path d="M790 900l16-208h18l16 208h-50z" fill="#b18c7f"/>

  <g opacity=".84" filter="url(#glow)">
    <circle cx="552" cy="612" r="18" fill="#ffbb88"/>
    <circle cx="1048" cy="598" r="18" fill="#8ec6ff"/>
    <circle cx="804" cy="680" r="30" fill="#ff9b65"/>
    <ellipse cx="804" cy="594" rx="260" ry="38" fill="#ffc187"/>
  </g>
</svg>
