<svg xmlns="http://www.w3.org/2000/svg" viewBox="0 0 1600 900" fill="none">
  <defs>
    <linearGradient id="bg" x1="800" y1="90" x2="800" y2="900" gradientUnits="userSpaceOnUse">
      <stop offset="0" stop-color="#121726"/>
      <stop offset=".45" stop-color="#1f2232"/>
      <stop offset="1" stop-color="#120f17"/>
    </linearGradient>
    <linearGradient id="floor" x1="800" y1="520" x2="800" y2="900" gradientUnits="userSpaceOnUse">
      <stop offset="0" stop-color="#37252b"/>
      <stop offset="1" stop-color="#130f15"/>
    </linearGradient>
    <filter id="blur" x="-20%" y="-20%" width="140%" height="140%">
      <feGaussianBlur stdDeviation="18"/>
    </filter>
  </defs>

  <rect width="1600" height="900" fill="url(#bg)"/>
  <rect y="520" width="1600" height="380" fill="url(#floor)"/>

  <g opacity=".35" filter="url(#blur)">
    <circle cx="438" cy="236" r="124" fill="#f4b176"/>
    <circle cx="1186" cy="246" r="114" fill="#7fb8ff"/>
    <circle cx="800" cy="314" r="152" fill="#ffcfab"/>
  </g>

  <g>
    <rect x="120" y="174" width="258" height="246" rx="18" fill="#232838"/>
    <rect x="236" y="238" width="26" height="118" rx="13" fill="#ffe8c4" fill-opacity=".18"/>
    <rect x="284" y="238" width="26" height="118" rx="13" fill="#ffe8c4" fill-opacity=".18"/>
    <rect x="160" y="308" width="176" height="18" rx="9" fill="#ffe0b6" fill-opacity=".22"/>
  </g>

  <g>
    <rect x="1214" y="154" width="270" height="268" rx="18" fill="#232939"/>
    <rect x="1284" y="210" width="146" height="42" rx="12" fill="#6fb0ff" fill-opacity=".34"/>
    <rect x="1264" y="302" width="178" height="18" rx="9" fill="#ffe0b6" fill-opacity=".2"/>
    <rect x="1268" y="334" width="170" height="18" rx="9" fill="#ffe0b6" fill-opacity=".14"/>
  </g>

  <g>
    <rect x="356" y="204" width="888" height="118" rx="26" fill="#1a2030"/>
    <rect x="406" y="238" width="788" height="20" rx="10" fill="#fff0db" fill-opacity=".18"/>
    <rect x="474" y="174" width="652" height="34" rx="17" fill="#7aa9f0" fill-opacity=".28"/>
    <rect x="586" y="156" width="428" height="22" rx="11" fill="#ffe8c5" fill-opacity=".34"/>
  </g>

  <g>
    <rect x="260" y="458" width="1080" height="176" rx="28" fill="#241920"/>
    <rect x="314" y="430" width="972" height="144" rx="18" fill="#39262c"/>
    <rect x="346" y="406" width="908" height="54" rx="14" fill="#fff2e2" fill-opacity=".12"/>
  </g>

  <g opacity=".48">
    <rect x="410" y="404" width="26" height="230" rx="13" fill="#d9dee6"/>
    <circle cx="423" cy="394" r="22" fill="#fff6ec"/>
    <rect x="784" y="366" width="32" height="268" rx="16" fill="#d9dee6"/>
    <circle cx="800" cy="350" r="28" fill="#fff6ec"/>
    <rect x="1160" y="404" width="26" height="230" rx="13" fill="#d9dee6"/>
    <circle cx="1173" cy="394" r="22" fill="#fff6ec"/>
  </g>

  <g>
    <ellipse cx="562" cy="640" rx="108" ry="46" fill="#1a1319"/>
    <ellipse cx="800" cy="672" rx="144" ry="56" fill="#1a1319"/>
    <ellipse cx="1046" cy="646" rx="112" ry="48" fill="#1a1319"/>
  </g>

  <g>
    <circle cx="560" cy="464" r="42" fill="#845b46"/>
    <rect x="520" y="502" width="80" height="126" rx="36" fill="#131922"/>
    <rect x="510" y="536" width="18" height="94" rx="9" fill="#131922"/>
    <rect x="592" y="536" width="18" height="94" rx="9" fill="#131922"/>
    <rect x="540" y="654" width="18" height="86" rx="9" fill="#131922"/>
    <rect x="582" y="654" width="18" height="86" rx="9" fill="#131922"/>
    <path d="M626 524c28-12 58-20 92-18v20c-32 0-58 10-82 24z" fill="#d4aa72"/>
    <rect x="492" y="530" width="14" height="150" rx="7" fill="#d9dee6"/>
    <circle cx="499" cy="514" r="16" fill="#fff3e6"/>
  </g>

  <g>
    <circle cx="800" cy="442" r="44" fill="#976955"/>
    <rect x="754" y="486" width="92" height="142" rx="42" fill="#161c27"/>
    <rect x="734" y="520" width="22" height="102" rx="11" fill="#161c27"/>
    <rect x="844" y="520" width="22" height="102" rx="11" fill="#161c27"/>
    <ellipse cx="914" cy="586" rx="72" ry="54" fill="#9d603f"/>
    <ellipse cx="680" cy="602" rx="48" ry="40" fill="#9d603f"/>
    <rect x="668" y="498" width="16" height="120" rx="8" fill="#d9dee6"/>
    <circle cx="676" cy="486" r="14" fill="#f3f6ff"/>
  </g>

  <g>
    <circle cx="1040" cy="464" r="42" fill="#74533f"/>
    <rect x="998" y="502" width="84" height="126" rx="38" fill="#12161f"/>
    <rect x="984" y="536" width="18" height="94" rx="9" fill="#12161f"/>
    <rect x="1080" y="536" width="18" height="94" rx="9" fill="#12161f"/>
    <rect x="1018" y="654" width="18" height="86" rx="9" fill="#12161f"/>
    <rect x="1060" y="654" width="18" height="86" rx="9" fill="#12161f"/>
    <rect x="1116" y="530" width="112" height="18" rx="9" fill="#2f3848"/>
    <rect x="1116" y="562" width="112" height="18" rx="9" fill="#2f3848"/>
  </g>

  <g opacity=".22">
    <ellipse cx="560" cy="788" rx="244" ry="60" fill="#ffcc9c"/>
    <ellipse cx="1044" cy="788" rx="260" ry="62" fill="#8cbcff"/>
    <ellipse cx="800" cy="794" rx="420" ry="74" fill="#fff0dd"/>
  </g>

  <g fill="#fff1de" fill-opacity=".84">
    <text x="800" y="246" text-anchor="middle" font-family="Georgia, serif" font-size="68">live soul set</text>
  </g>
</svg>
